# xmcd
#
# Track frame offsets: 
#        150
#        24285
#        46964
#        67704
#        103032
#        125814
#        139977
#        187428
#        212100
#        227063
#        239788
#        263939
#        282364
#        304056
#        319503
#
# Disc length: 4504 seconds
#
# Revision: 0
# Processed by: cddbd v1.5.2PL0 Copyright (c) Steve Scherf et al.
# Submitted via: ExactAudioCopy v0.99pb4
#
DISCID=e611960f
DTITLE=Kirk Fletcher - I'm Here And I'm Gone
DYEAR=2009
DGENRE=Blues
TTITLE0=I Ain't Doing Nothing Wrong
TTITLE1=What Is Going On
TTITLE2=Church Street Boogie
TTITLE3=I'm Not Your Fool
TTITLE4=What Heppened To You
TTITLE5=Shool Street Shuffle
TTITLE6=Silver Spoon
TTITLE7=You Went Back On Your Word
TTITLE8=Mr. Mann
TTITLE9=Bye Bye So Long
TTITLE10=Watsonized
TTITLE11=Worried All The Time
TTITLE12=I Smell Trouble
TTITLE13=Next Time You See Me
TTITLE14=Watsonized
EXTD=
EXTT0=
EXTT1=
EXTT2=
EXTT3=
EXTT4=
EXTT5=
EXTT6=
EXTT7=
EXTT8=
EXTT9=
EXTT10=
EXTT11=
EXTT12=
EXTT13=
EXTT14=
PLAYORDER=
